<svg xmlns="http://www.w3.org/2000/svg" width="240" height="240" viewBox="0 0 240 240" fill="none">
<path fill-rule="evenodd" clip-rule="evenodd" d="M92.1653 28.2623C64.5385 33.6323 27.7537 55.6123 26.2259 129.913C26.2259 213.903 154.819 232.506 191.261 179.924C267.117 62.0856 140.218 18.9218 92.1653 28.2623Z" fill="#F5F5F5"/>
<path fill-rule="evenodd" clip-rule="evenodd" d="M131.545 104.279C139.739 118.041 204.158 119.207 213.274 104.279C219.577 93.9573 217.821 42.5678 213.274 33.9037C205.244 18.6024 138.176 16.8247 129.234 33.9038C123.53 44.7985 120.361 90.9054 131.545 104.279Z" fill="white"/>
<rect x="152.653" y="26.9746" width="46.6151" height="48.0107" rx="8" transform="rotate(0.404491 152.653 26.9746)" fill="#F5F5F5"/>
<path fill-rule="evenodd" clip-rule="evenodd" d="M184.876 101.431C190.291 101.521 193.51 98.6445 190.085 97.1423C186.659 95.6394 170.027 96.717 164.929 96.6603C159.832 96.6029 157.023 96.8074 156.994 99.5352C156.961 102.471 166.123 101.225 173.12 101.417C179.412 101.59 184.876 101.431 184.876 101.431Z" fill="#F5F5F5"/>
<path fill-rule="evenodd" clip-rule="evenodd" d="M199.862 91.6393C203.849 91.1117 205.852 87.8431 200.207 86.7992C194.561 85.7559 181.303 85.7019 172.764 85.632C164.226 85.5621 148.978 86.38 147.194 86.3549C145.411 86.3305 141.896 89.9941 149.346 90.8337C156.795 91.6733 182.616 90.5483 188.826 90.9783C195.036 91.4082 198.184 91.861 199.862 91.6393Z" fill="#F5F5F5"/>
<path fill-rule="evenodd" clip-rule="evenodd" d="M150.519 83.2297C150.499 81.4605 145.625 85.9169 146.016 84.6003C148.136 77.4497 152.739 75.5563 148.24 73.0824C144.886 71.2381 140.347 73.4923 136.026 80.7845C134.353 83.6071 127.077 102.938 118.228 115.687C111.803 124.943 100.695 133.026 89.8766 140.717C92.2722 142.608 97.2448 149.676 99.7497 153.092C113.539 145.844 122.794 133.366 130.501 118.599C136.329 107.434 139.031 102.759 144.11 89.8937C144.223 89.6069 150.532 84.4428 150.519 83.2297Z" fill="#88BCDA"/>
<path fill-rule="evenodd" clip-rule="evenodd" d="M70.3606 87.2856C72.9093 98.0517 75.0002 89.5957 77.719 100.877C79.3327 107.57 86.2865 75.8973 71.292 75.1845" fill="#0E6392"/>
<path fill-rule="evenodd" clip-rule="evenodd" d="M78.967 100.657C78.1795 74.8637 76.6528 70.2298 63.7447 68.6371C44.3831 66.2471 38.8542 78.2429 37.4341 90.9635C36.0141 103.685 40.1464 115.269 40.6685 124.791C41.0268 131.328 41.168 142.526 34.063 150.835C25.1055 161.31 52.1554 167.321 62.8876 162.268C73.6204 157.216 76.1504 149.3 72.6341 144.917C69.1173 140.536 64.8311 128.863 73.435 122.992C77.778 120.028 79.3635 113.643 78.967 100.657Z" fill="#88BCDA"/>
<path fill-rule="evenodd" clip-rule="evenodd" d="M82.3375 82.3909C78.1639 88.743 44.135 74.6037 43.705 89.7322C43.2028 107.421 40.3692 103.463 40.5149 118.253C40.1625 129.262 13.6684 79.2456 39.0228 71.2138C49.5763 67.8705 52.3683 57.1351 69.2992 60.0952C77.5047 61.5301 89.9965 70.7348 82.3375 82.3909Z" fill="#0E6392"/>
<path fill-rule="evenodd" clip-rule="evenodd" d="M54.658 100.274C54.3744 99.3294 54.6111 98.7339 55.4732 98.1472C56.2281 97.6329 57.1372 98.0922 57.432 98.562C58.0978 99.6243 57.713 101.775 56.3602 101.77C55.443 101.767 54.8941 101.062 54.658 100.274Z" fill="#083752"/>
<path fill-rule="evenodd" clip-rule="evenodd" d="M72.3536 98.5827C72.1115 97.7759 72.313 97.268 73.0488 96.7676C73.6939 96.3282 74.469 96.7207 74.7209 97.1216C75.2889 98.0282 74.9607 99.8634 73.8061 99.8591C73.0235 99.8563 72.5551 99.2551 72.3536 98.5827Z" fill="#083752"/>
<path fill-rule="evenodd" clip-rule="evenodd" d="M68.2109 110.906C70.4073 109.742 70.2009 108.06 68.6372 108.714C66.9836 109.404 64.0504 108.657 63.7015 109.717C63.5293 110.239 65.8988 112.131 68.2109 110.906Z" fill="white"/>
<path fill-rule="evenodd" clip-rule="evenodd" d="M51.4065 94.4614C54.3082 92.5343 57.4717 91.8361 60.3102 93.0424C60.8873 93.2879 61.1995 93.9267 61.009 94.4692C60.8164 95.0136 60.1925 94.7991 59.5752 94.6754C57.3492 94.2297 55.0053 94.4961 51.8791 96.4707C51.3915 96.7792 50.6533 97.0699 50.3199 96.5399C50.0248 96.0724 50.4027 95.128 51.4065 94.4614Z" fill="#0E6392"/>
<path fill-rule="evenodd" clip-rule="evenodd" d="M71.3093 91.726C73.405 90.1476 76.2806 90.0385 78.964 90.9356C79.8918 91.2459 79.867 91.8593 79.8485 92.413C79.8301 92.9508 79.5187 93.1078 79.0725 92.9647C76.0641 91.9995 73.458 92.5078 72.3688 93.3205C70.4373 94.7628 68.9621 96.4419 70.6731 100.084C72.9885 105.013 69.3019 105.28 68.8361 104.924C68.2279 104.459 69.8338 103.757 70.1647 103.289C70.8417 102.332 68.7173 98.5733 68.8243 96.757C68.9417 94.755 69.3884 93.1728 71.3093 91.726Z" fill="#0E6392"/>
<path fill-rule="evenodd" clip-rule="evenodd" d="M43.0858 97.2388C38.1409 96.69 37.1782 99.8427 37.0186 101.551C36.6277 105.735 39.3754 107.543 43.394 106.421C45.9089 105.719 45.5471 97.5118 43.0858 97.2388Z" fill="#88BCDA"/>
<path fill-rule="evenodd" clip-rule="evenodd" d="M39.4734 105.351C39.3369 105.539 39.059 105.589 38.6761 105.511C38.4292 105.459 38.0739 105.237 38.3085 104.723C38.378 104.57 38.686 104.372 38.8639 104.332C39.6517 104.154 39.6981 105.044 39.4734 105.351Z" fill="#083752"/>
<path fill-rule="evenodd" clip-rule="evenodd" d="M93.8989 136.345C87.1559 138.632 82.6604 140.033 71.7872 141.206C67.2012 141.7 82.4096 150.503 66.0009 150.435C50.4676 150.371 38.6703 143.124 34.5785 146.137C19.6752 159.616 20.6084 187.296 29.5829 212.907C34.8485 227.934 60.0525 224.378 60.0525 224.378C60.0525 224.378 96.9657 222.02 98.5505 212.907C101.364 196.731 86.3732 179.282 88.3282 171.137C93.8989 164.131 105.812 159.518 104.315 156.372C102.538 151.531 98.1643 134.898 93.8989 136.345Z" fill="white"/>
<path d="M110.086 84.3352C112.341 69.4199 113.469 61.9622 118.803 58.0292C124.138 54.0963 131.595 55.224 146.511 57.4795L153.172 58.4868C168.088 60.7423 175.545 61.87 179.478 67.2043C183.411 72.5386 182.283 79.9963 180.028 94.9117L179.083 101.162C176.827 116.078 175.7 123.535 170.365 127.468C165.031 131.401 157.573 130.273 142.658 128.018L135.996 127.011C121.081 124.755 113.623 123.628 109.69 118.293C105.757 112.959 106.885 105.501 109.141 90.5858L110.086 84.3352Z" fill="#FE6340"/>
<path d="M141.854 82.2677C143.352 84.5519 140.946 88.1494 138.015 85.6318C136.556 84.7179 129.096 82.5867 128.395 91.4709C127.818 98.7736 133.995 98.6333 136.551 97.5968C139.106 96.5603 141.333 101.367 138.978 102.967C136.623 104.568 131.454 105.954 126.395 102.947C120.52 99.4545 121.216 88.8235 125.584 81.8017C129.65 75.2652 139.96 79.3806 141.854 82.2677Z" fill="white"/>
<path d="M154.407 81.9977C153.873 79.5169 148.591 79.8589 148.901 82.7072C149.146 84.9549 150.663 101.419 153.097 104.372C154.675 106.287 158.393 106.229 159.738 103.763C161.084 101.298 167.685 87.379 168.37 84.3142C168.703 82.8267 164.583 80.7228 163.603 82.7755C162.915 84.2187 157.516 98.2081 156.714 96.2367C155.912 94.2653 154.808 83.8603 154.407 81.9977Z" fill="white"/>
<path fill-rule="evenodd" clip-rule="evenodd" d="M139.843 111.456C140.34 109.206 142.479 103.367 144.069 104.081C145.658 104.795 142.91 109.19 144 110.352C145.378 111.821 152.521 96.4828 156.86 99.9236C167.13 108.069 153.376 121.053 147.381 130.333C141.517 139.41 130.883 164.504 117.61 176.515C97.9062 194.346 84.6565 195.374 68.8141 191.195C64.2494 189.991 55.4725 177.283 68.8141 174.228C82.4228 171.112 93.4109 174.228 108.288 160.2C120.328 148.847 128.079 138.352 134.064 128.273C138.244 122.379 138.609 117.033 139.843 111.456Z" fill="#88BCDA"/>
<path fill-rule="evenodd" clip-rule="evenodd" d="M75.0486 166.963C81.1877 167.817 85.0519 191.883 80.3696 195.945C75.6868 200.006 58.1885 195.475 50.5318 186.665C44.2795 179.471 50.7442 166.753 63.6143 166.654C69.8298 166.607 71.5974 166.483 75.0486 166.963Z" fill="white"/>
<path fill-rule="evenodd" clip-rule="evenodd" d="M196.222 51.9013C198.682 48.192 201.634 47.552 203.745 49.9722C205.653 52.1607 203.101 54.6909 202.034 56.0342C199.085 59.7424 197.442 63.3927 194.571 59.8431C191.701 56.2942 194.076 54.6695 196.222 51.9013Z" fill="#F2D249"/>
<path fill-rule="evenodd" clip-rule="evenodd" d="M208.095 65.4615C212.5 64.6924 215.006 66.3849 214.701 69.5675C214.424 72.4449 210.816 72.3388 209.099 72.4892C204.357 72.905 200.56 74.2222 201.164 69.7166C201.768 65.2115 204.595 65.8117 208.095 65.4615Z" fill="#F2D249"/>
</svg>